<svg width="71" height="79" viewBox="0 0 71 79" fill="none" xmlns="http://www.w3.org/2000/svg">
<g filter="url(#filter0_b_1276_4653)">
<path d="M1 43.8955C1 24.6161 16.7206 8.98706 36 8.98706C55.2794 8.98706 71 24.6161 71 43.8955C71 63.175 55.2794 78.804 36 78.804C16.7206 78.804 1 63.175 1 43.8955Z" fill="url(#paint0_radial_1276_4653)"/>
<path d="M1.5 43.8955C1.5 24.894 16.995 9.48706 36 9.48706C55.005 9.48706 70.5 24.894 70.5 43.8955C70.5 62.8971 55.005 78.304 36 78.304C16.995 78.304 1.5 62.8971 1.5 43.8955Z" stroke="url(#paint1_radial_1276_4653)"/>
<path d="M1.5 43.8955C1.5 24.894 16.995 9.48706 36 9.48706C55.005 9.48706 70.5 24.894 70.5 43.8955C70.5 62.8971 55.005 78.304 36 78.304C16.995 78.304 1.5 62.8971 1.5 43.8955Z" stroke="url(#paint2_radial_1276_4653)"/>
<path d="M1.5 43.8955C1.5 24.894 16.995 9.48706 36 9.48706C55.005 9.48706 70.5 24.894 70.5 43.8955C70.5 62.8971 55.005 78.304 36 78.304C16.995 78.304 1.5 62.8971 1.5 43.8955Z" stroke="url(#paint3_radial_1276_4653)"/>
</g>
<g filter="url(#filter1_f_1276_4653)">
<ellipse cx="35.776" cy="27.784" rx="22.2115" ry="14.3214" fill="url(#paint4_radial_1276_4653)" fill-opacity="0.2"/>
</g>
<path fill-rule="evenodd" clip-rule="evenodd" d="M41.4451 29.4685C43.8153 29.4685 45.8334 30.9839 46.5811 33.0982H30.5562C28.1496 33.0982 25.8416 34.0542 24.1399 35.7559C22.4382 37.4576 21.4822 39.7656 21.4822 42.1722V50.9378C20.4204 50.5621 19.5012 49.8665 18.8511 48.9467C18.2011 48.0269 17.8522 46.9282 17.8525 45.8019V34.913C17.8525 33.469 18.4261 32.0842 19.4472 31.0632C20.4682 30.0421 21.853 29.4685 23.297 29.4685H41.4451ZM48.7044 36.7278H30.5562C29.1123 36.7278 27.7275 37.3014 26.7064 38.3224C25.6854 39.3435 25.1118 40.7283 25.1118 42.1722V53.0611C25.1118 54.5051 25.6854 55.8899 26.7064 56.9109C27.7275 57.932 29.1123 58.5056 30.5562 58.5056H48.7044C50.1483 58.5056 51.5332 57.932 52.5542 56.9109C53.5752 55.8899 54.1488 54.5051 54.1488 53.0611V42.1722C54.1488 40.7283 53.5752 39.3435 52.5542 38.3224C51.5332 37.3014 50.1483 36.7278 48.7044 36.7278ZM43.2599 47.6167C43.2599 48.5793 42.8775 49.5025 42.1969 50.1832C41.5162 50.8639 40.593 51.2463 39.6303 51.2463C38.6677 51.2463 37.7445 50.8639 37.0638 50.1832C36.3831 49.5025 36.0007 48.5793 36.0007 47.6167C36.0007 46.654 36.3831 45.7308 37.0638 45.0501C37.7445 44.3695 38.6677 43.9871 39.6303 43.9871C40.593 43.9871 41.5162 44.3695 42.1969 45.0501C42.8775 45.7308 43.2599 46.654 43.2599 47.6167Z" fill="#263238"/>
<defs>
<filter id="filter0_b_1276_4653" x="-4" y="3.98706" width="80" height="79.817" filterUnits="userSpaceOnUse" color-interpolation-filters="sRGB">
<feFlood flood-opacity="0" result="BackgroundImageFix"/>
<feGaussianBlur in="BackgroundImage" stdDeviation="2.5"/>
<feComposite in2="SourceAlpha" operator="in" result="effect1_backgroundBlur_1276_4653"/>
<feBlend mode="normal" in="SourceGraphic" in2="effect1_backgroundBlur_1276_4653" result="shape"/>
</filter>
<filter id="filter1_f_1276_4653" x="0.609919" y="0.50802" width="70.3319" height="54.5519" filterUnits="userSpaceOnUse" color-interpolation-filters="sRGB">
<feFlood flood-opacity="0" result="BackgroundImageFix"/>
<feBlend mode="normal" in="SourceGraphic" in2="BackgroundImageFix" result="shape"/>
<feGaussianBlur stdDeviation="6.47727" result="effect1_foregroundBlur_1276_4653"/>
</filter>
<radialGradient id="paint0_radial_1276_4653" cx="0" cy="0" r="1" gradientUnits="userSpaceOnUse" gradientTransform="translate(6.85553 8.98706) rotate(47.9449) scale(104.502 75.9282)">
<stop stop-color="white" stop-opacity="0.36"/>
<stop offset="1" stop-color="white" stop-opacity="0"/>
</radialGradient>
<radialGradient id="paint1_radial_1276_4653" cx="0" cy="0" r="1" gradientUnits="userSpaceOnUse" gradientTransform="translate(-36.272 16.1295) rotate(35.0407) scale(80.6323 47.5897)">
<stop stop-color="white"/>
<stop offset="1" stop-color="white" stop-opacity="0.06"/>
</radialGradient>
<radialGradient id="paint2_radial_1276_4653" cx="0" cy="0" r="1" gradientUnits="userSpaceOnUse" gradientTransform="translate(91.4934 55.7127) rotate(161.385) scale(58.4875 39.5311)">
<stop stop-color="#8470FF"/>
<stop offset="1" stop-color="#865CFF" stop-opacity="0"/>
</radialGradient>
<radialGradient id="paint3_radial_1276_4653" cx="0" cy="0" r="1" gradientUnits="userSpaceOnUse" gradientTransform="translate(36.7621 -6.96937) rotate(47.2149) scale(39.0626 28.0769)">
<stop/>
<stop offset="1" stop-color="white" stop-opacity="0"/>
</radialGradient>
<radialGradient id="paint4_radial_1276_4653" cx="0" cy="0" r="1" gradientUnits="userSpaceOnUse" gradientTransform="translate(35.776 13.4626) rotate(90) scale(21.2246 32.9219)">
<stop stop-color="white"/>
<stop offset="1" stop-color="white" stop-opacity="0"/>
</radialGradient>
</defs>
</svg>
