<svg width="147" height="47" viewBox="0 0 147 47" fill="none" xmlns="http://www.w3.org/2000/svg">
<g clip-path="url(#clip0_1276_4816)">
<rect width="146.206" height="46.1702" transform="translate(0 0.5)" fill="#0A0A0A"/>
<path fill-rule="evenodd" clip-rule="evenodd" d="M5.23404 0.915405H130.085C131.905 0.915405 132.565 1.10484 133.23 1.46105C133.888 1.80909 134.425 2.34677 134.773 3.00429C135.129 3.66935 135.319 4.32927 135.319 6.14945V40.5918C135.319 42.412 135.129 43.0719 134.773 43.737C134.425 44.3945 133.888 44.9322 133.23 45.2802C132.565 45.6364 131.905 45.8258 130.085 45.8258H5.23404C3.41386 45.8258 2.75395 45.6364 2.08888 45.2802C1.43118 44.9322 0.893306 44.3945 0.545127 43.737C0.19046 43.0719 0 42.412 0 40.5918V6.14945C0 4.32927 0.18943 3.66935 0.545642 3.00429C0.893601 2.34658 1.43129 1.80871 2.08888 1.46053C2.75395 1.10587 3.41386 0.915405 5.23404 0.915405Z" fill="#0A0A0A"/>
<path d="M17.6727 34.2005C18.1576 34.2854 18.7305 34.1809 19.343 33.8556L30.0845 28.151L26.9599 25.0831L17.6727 34.2005ZM16.7857 14.632C16.5196 15.016 16.3662 15.5447 16.3662 16.1953V32.0436C16.3662 32.6773 16.5114 33.1951 16.7641 33.5761L26.1646 24.0927L16.7857 14.632ZM30.7377 20.0606L19.9638 14.3535C19.3652 14.0364 18.8041 13.9278 18.3259 14.0004L27.6172 23.1239L30.7377 20.0606ZM31.5366 27.697L34.6571 26.0755C36.4 25.1711 36.399 23.6922 34.655 22.7893L31.5176 21.1643L28.1248 24.4211L31.5366 27.697ZM53.8225 17.0266C53.2248 17.0317 52.6364 16.8784 52.1171 16.5824C51.6034 16.2925 51.176 15.8713 50.8786 15.3619C50.5733 14.8446 50.4204 14.2686 50.4204 13.6334C50.4204 12.9987 50.5733 12.4221 50.8786 11.9053C51.1761 11.3962 51.6035 10.9752 52.1171 10.6854C52.6363 10.389 53.2247 10.2354 53.8225 10.2401C54.3125 10.2401 54.7696 10.3276 55.1927 10.5037C55.6159 10.6787 55.97 10.9237 56.2542 11.2382L55.5464 11.946C55.3367 11.7114 55.0783 11.5255 54.7892 11.4014C54.4806 11.2714 54.1485 11.2065 53.8137 11.2109C53.3962 11.2109 53.0061 11.3108 52.6432 11.5105C52.2804 11.71 51.9792 12.005 51.7722 12.3635C51.5545 12.7325 51.4458 13.1557 51.4458 13.6334C51.4458 14.1116 51.5545 14.5347 51.7722 14.9038C51.9792 15.2623 52.2804 15.5573 52.6432 15.7567C53.0042 15.9557 53.4102 16.0587 53.8225 16.0558C54.2096 16.0558 54.5333 15.9987 54.7933 15.8834C55.0508 15.7703 55.287 15.6139 55.4918 15.4211C55.6251 15.2878 55.7389 15.1215 55.8321 14.9218C55.928 14.7152 55.9909 14.4947 56.0184 14.2686H53.8137V13.3616H56.98C57.0103 13.5309 57.0253 13.7065 57.0253 13.8877C57.0253 14.299 56.962 14.6938 56.8348 15.0716C56.7121 15.4427 56.5041 15.7798 56.2274 16.0558C55.6159 16.7034 54.8144 17.0266 53.8225 17.0266ZM60.101 17.0266C59.6474 17.0266 59.2408 16.9211 58.881 16.709C58.5242 16.5009 58.232 16.198 58.0368 15.834C57.8345 15.4618 57.7331 15.0428 57.7331 14.5769C57.7298 14.1493 57.8311 13.7273 58.028 13.3477C58.2162 12.9788 58.4997 12.6671 58.8491 12.4448C59.1996 12.2214 59.5991 12.1092 60.0464 12.1092C60.5122 12.1092 60.9163 12.2121 61.2576 12.418C61.5994 12.6234 61.8599 12.9045 62.038 13.2617C62.2166 13.6184 62.3057 14.0205 62.3057 14.4683C62.3057 14.5527 62.2969 14.6588 62.2784 14.7859H58.7312C58.7672 15.2152 58.9201 15.5462 59.1893 15.7794C59.4481 16.0083 59.7828 16.1327 60.1282 16.1284C60.4124 16.1284 60.6589 16.0635 60.8679 15.9333C61.0764 15.8036 61.2442 15.6265 61.3714 15.4031L62.2151 15.802C62.0111 16.1686 61.7176 16.4776 61.3621 16.7003C61.0116 16.918 60.591 17.0266 60.101 17.0266ZM61.29 14.0236C61.2754 13.8523 61.2226 13.6864 61.1356 13.5381C61.0362 13.3694 60.8938 13.2301 60.7228 13.1346C60.538 13.0254 60.3125 12.9714 60.0464 12.9714C59.7262 12.9714 59.4554 13.0666 59.2346 13.2571C59.0138 13.4475 58.8609 13.7029 58.7765 14.0241H61.2895L61.29 14.0236ZM64.9731 16.9541C64.7672 16.9541 64.5742 16.9211 64.3925 16.8542C64.2113 16.7878 64.063 16.6998 63.9477 16.5917C63.6878 16.3312 63.5575 15.9776 63.5575 15.5297V13.1346H62.7504V12.2543H63.5575V10.9479H64.5562V12.2543H65.6809V13.1346H64.5557V15.312C64.5557 15.5601 64.604 15.7356 64.7008 15.8381C64.7919 15.959 64.9489 16.0198 65.1728 16.0198C65.2758 16.0198 65.3664 16.0059 65.4451 15.9786C65.5234 15.9518 65.6083 15.9076 65.6989 15.8473V16.8182C65.4992 16.9088 65.2573 16.9541 64.9731 16.9541ZM69.328 11.5831C69.1406 11.5831 68.982 11.5182 68.8518 11.388C68.7885 11.3262 68.7385 11.252 68.705 11.1701C68.6714 11.0882 68.655 11.0003 68.6567 10.9119C68.6567 10.724 68.7216 10.5654 68.8518 10.4352C68.982 10.3055 69.1406 10.2401 69.328 10.2401C69.5158 10.2401 69.6744 10.3055 69.8046 10.4357C69.9343 10.5654 69.9997 10.724 69.9997 10.9119C69.9997 11.0992 69.9343 11.2578 69.8041 11.388C69.7423 11.4513 69.6681 11.5013 69.5862 11.5348C69.5043 11.5684 69.4164 11.5848 69.328 11.5831ZM68.8286 12.2543H69.8273V16.882H68.8286V12.2543ZM72.921 16.9541C72.7151 16.9541 72.5215 16.9211 72.3403 16.8542C72.1586 16.7878 72.0109 16.6998 71.8956 16.5917C71.6356 16.3312 71.5054 15.9776 71.5054 15.5297V13.1346H70.6982V12.2543H71.5054V10.9479H72.504V12.2543H73.6287V13.1346H72.5035V15.312C72.5035 15.5601 72.5519 15.7356 72.6487 15.8381C72.7392 15.959 72.8968 16.0198 73.1207 16.0198C73.2236 16.0198 73.3142 16.0059 73.3925 15.9786C73.4712 15.9518 73.5562 15.9076 73.6468 15.8473V16.8182C73.447 16.9088 73.2051 16.9541 72.921 16.9541ZM78.8726 17.0266C78.4067 17.0266 77.9898 16.9196 77.6207 16.7049C77.2568 16.4956 76.9583 16.1892 76.7585 15.8201C76.5531 15.4453 76.4501 15.0273 76.4501 14.5682C76.4501 14.1085 76.5531 13.691 76.759 13.3158C76.9588 12.9469 77.2571 12.6407 77.6207 12.4314C77.9898 12.2168 78.4067 12.1092 78.8726 12.1092C79.3384 12.1092 79.7559 12.2183 80.125 12.436C80.4882 12.6479 80.7862 12.9554 80.9867 13.325C81.1926 13.7003 81.2955 14.1142 81.2955 14.5682C81.2955 15.0278 81.1926 15.4453 80.9867 15.8201C80.787 16.1891 80.4886 16.4955 80.125 16.7049C79.7559 16.9196 79.3384 17.0266 78.8726 17.0266ZM78.8726 16.1104C79.1269 16.1104 79.3626 16.0486 79.5804 15.9246C79.7981 15.8005 79.9716 15.6219 80.1018 15.3892C80.232 15.156 80.2974 14.8827 80.2974 14.5682C80.2974 14.2537 80.232 13.9813 80.1018 13.7512C79.98 13.53 79.7996 13.3466 79.5804 13.2211C79.365 13.0976 79.1208 13.0333 78.8726 13.0347C78.6188 13.0347 78.3825 13.0965 78.1648 13.2205C77.947 13.3446 77.7736 13.5217 77.6433 13.7512C77.5131 13.9813 77.4482 14.2537 77.4482 14.5682C77.4482 14.8822 77.5131 15.156 77.6433 15.3892C77.7736 15.6219 77.947 15.8005 78.1648 15.9246C78.3825 16.0481 78.6188 16.1104 78.8726 16.1104ZM82.1207 12.2549H83.073V12.8623H83.1188C83.2516 12.6445 83.4498 12.4649 83.7128 12.3223C83.9701 12.1817 84.2587 12.1084 84.5519 12.1092C85.1145 12.1092 85.5428 12.2739 85.8362 12.6033C86.1296 12.9333 86.2763 13.3827 86.2763 13.951V16.8815H85.2777V14.0874C85.2777 13.7245 85.1886 13.4584 85.01 13.289C84.8319 13.1191 84.5853 13.0347 84.2708 13.0347C84.0474 13.0347 83.8477 13.0965 83.6722 13.2205C83.4971 13.3446 83.3607 13.5093 83.264 13.7147C83.1672 13.9206 83.1188 14.1419 83.1188 14.3777V16.8815H82.1207V12.2543V12.2549ZM50.2681 23.5949H54.2523C54.9688 23.5949 55.6221 23.7452 56.2125 24.0459C56.8024 24.346 57.2662 24.7676 57.6034 25.3101C57.9405 25.8532 58.1094 26.4724 58.1094 27.1679C58.1094 27.8633 57.9405 28.4851 57.6034 29.0333C57.2682 29.5795 56.7862 30.0204 56.2125 30.3058C55.6221 30.6059 54.9688 30.7562 54.2523 30.7562H52.4017V34.9139H50.2676V23.5955L50.2681 23.5949ZM54.3151 28.7327C54.8422 28.7327 55.2561 28.5798 55.5562 28.2746C55.8568 27.9688 56.0066 27.6003 56.0066 27.1679C56.0066 26.7355 55.8568 26.3695 55.5562 26.0689C55.2561 25.7688 54.8422 25.6184 54.3156 25.6184H52.4017V28.7327H54.3146H54.3151ZM59.0591 23.5955H61.1299V34.9139H59.0591V23.5955ZM64.9098 35.1672C64.0563 35.1672 63.3552 34.9165 62.8075 34.4156C62.2593 33.9153 61.9855 33.2595 61.9855 32.4477C61.9855 31.9103 62.1275 31.4362 62.4122 31.0249C62.6969 30.6142 63.0865 30.2981 63.5817 30.0767C64.0774 29.8554 64.6251 29.7447 65.2259 29.7447C66.0587 29.7447 66.7701 29.8657 67.36 30.1081V29.7602C67.36 29.3175 67.1943 28.9592 66.8623 28.6854C66.5303 28.4115 66.085 28.2746 65.5265 28.2746C65.1471 28.2746 64.7806 28.3611 64.4275 28.5351C64.0886 28.6979 63.7893 28.9326 63.5503 29.2228L62.2223 28.1794C62.6097 27.6756 63.1144 27.2741 63.6924 27.0098C64.2828 26.7355 64.9258 26.5985 65.6212 26.5985C66.854 26.5985 67.7924 26.8832 68.4349 27.4525C69.0783 28.0213 69.3995 28.8542 69.3995 29.9501V34.9139H67.36V34.0918H67.2334C66.9915 34.4079 66.6723 34.6663 66.277 34.8666C65.8822 35.0668 65.4261 35.1667 64.9098 35.1667V35.1672ZM65.3999 33.5544C66.0006 33.5544 66.4772 33.3619 66.8309 32.9774C67.1835 32.5929 67.36 32.142 67.36 31.6256C66.8315 31.3747 66.2536 31.2451 65.6686 31.2463C64.5937 31.2463 64.0563 31.6468 64.0563 32.4477C64.0563 32.7746 64.1722 33.0407 64.4038 33.2461C64.6354 33.452 64.968 33.5544 65.3999 33.5544ZM73.0208 34.5345L69.6224 26.8518H71.9774L74.0642 31.863H74.1909L76.1984 26.8518H78.5066L73.5268 38.3283H71.2979L73.0208 34.5345ZM85.2756 35.1667C84.2847 35.1667 83.4101 34.8877 82.6514 34.3292C81.8921 33.7706 81.3604 32.9805 81.0546 31.9577L83.0622 31.1675C83.2202 31.7682 83.4894 32.2475 83.8683 32.6057C84.2477 32.964 84.7223 33.1432 85.2911 33.1432C85.7657 33.1432 86.1713 33.0248 86.5085 32.788C86.8456 32.5507 87.0145 32.2212 87.0145 31.7996C87.0145 31.3781 86.8534 31.0326 86.5322 30.7639C86.2109 30.4952 85.639 30.208 84.817 29.9028L84.1215 29.6495C83.3942 29.3968 82.7729 29.0097 82.2561 28.4877C81.7398 27.9662 81.4814 27.3099 81.4814 26.5198C81.4814 25.9294 81.6342 25.392 81.9395 24.9071C82.2453 24.4221 82.6777 24.0402 83.2362 23.7612C83.7947 23.4817 84.4268 23.3422 85.133 23.3422C86.1553 23.3422 86.9615 23.5821 87.5519 24.0613C88.1418 24.5411 88.5479 25.1021 88.7693 25.7446L86.8878 26.5352C86.7738 26.1903 86.5625 25.8857 86.2794 25.6581C85.9896 25.4213 85.6179 25.3024 85.165 25.3024C84.7012 25.3024 84.3192 25.4105 84.0186 25.6267C83.7185 25.8429 83.5682 26.1244 83.5682 26.4724C83.5682 26.8096 83.7103 27.0968 83.9949 27.3336C84.2796 27.5709 84.7485 27.8 85.4017 28.0213L86.1131 28.2581C87.0932 28.5958 87.8443 29.0411 88.3657 29.5944C88.8877 30.1478 89.1481 30.872 89.1481 31.7682C89.1481 32.5059 88.9587 33.1303 88.5793 33.6414C88.2048 34.1487 87.6995 34.5447 87.1174 34.7873C86.5356 35.0374 85.9089 35.1665 85.2756 35.1667ZM93.3547 35.0405C92.9781 35.0446 92.6036 34.9831 92.248 34.8588C91.9113 34.7374 91.637 34.5716 91.4265 34.3605C90.9307 33.8865 90.6831 33.2121 90.6831 32.3376V28.622H89.2763V26.8513H90.6831V24.575H92.754V26.8518H94.7307V28.6226H92.754V31.9582C92.754 32.369 92.8436 32.6634 93.0232 32.843C93.1704 33.0114 93.4237 33.0958 93.782 33.0958C93.9822 33.0958 94.148 33.0701 94.2797 33.017C94.4575 32.9406 94.6293 32.8507 94.7935 32.7483V34.7713C94.3353 34.9516 93.8471 35.043 93.3547 35.0405ZM99.3794 35.1667C98.5471 35.1667 97.8043 34.9798 97.1505 34.6056C96.5103 34.2448 95.9823 33.7141 95.6248 33.0721C95.2614 32.424 95.0792 31.6941 95.0792 30.8829C95.0792 30.0819 95.2614 29.3545 95.6248 28.7013C95.9805 28.0558 96.5087 27.522 97.1505 27.1596C97.8043 26.7859 98.5471 26.5985 99.3794 26.5985C100.201 26.5985 100.939 26.7859 101.593 27.1596C102.235 27.522 102.763 28.0559 103.118 28.7013C103.482 29.3551 103.664 30.0819 103.664 30.8829C103.664 31.6941 103.482 32.424 103.118 33.0721C102.761 33.7143 102.233 34.2452 101.592 34.6061C100.939 34.9798 100.202 35.1672 99.3789 35.1672L99.3794 35.1667ZM99.3794 33.2538C99.7668 33.2574 100.148 33.1594 100.486 32.9697C100.827 32.7767 101.106 32.4918 101.292 32.1476C101.493 31.7893 101.592 31.3678 101.592 30.8829C101.592 30.4083 101.493 29.9923 101.292 29.6341C101.106 29.2899 100.827 29.005 100.486 28.812C100.148 28.6221 99.7669 28.524 99.3794 28.5273C98.992 28.524 98.6104 28.6221 98.2727 28.812C97.9355 29.0014 97.6643 29.2753 97.4589 29.6341C97.253 29.9923 97.15 30.4083 97.15 30.8829C97.15 31.3569 97.253 31.776 97.4589 32.1394C97.6643 32.5033 97.9355 32.7797 98.2727 32.9697C98.6105 33.1594 98.9921 33.2574 99.3794 33.2538ZM104.439 26.8518H106.384V27.9266H106.51C106.711 27.5472 107.022 27.2337 107.443 26.9862C107.865 26.7384 108.346 26.6099 108.834 26.6145C109.203 26.6145 109.54 26.6727 109.846 26.7885V28.8594C109.611 28.7696 109.371 28.6931 109.127 28.6303C108.922 28.5816 108.713 28.5576 108.502 28.5587C107.891 28.5587 107.406 28.7801 107.048 29.2228C106.689 29.6655 106.51 30.224 106.51 30.8988V34.9139H104.439V26.8523V26.8518ZM113.847 35.1667C113.046 35.1667 112.324 34.9824 111.681 34.6133C111.047 34.2535 110.525 33.7257 110.171 33.0881C109.808 32.4395 109.626 31.7101 109.626 30.8988C109.62 30.1506 109.805 29.4134 110.164 28.7564C110.511 28.1097 111.024 27.567 111.65 27.1838C112.282 26.7936 112.988 26.5985 113.768 26.5985C114.601 26.5985 115.317 26.7777 115.918 27.1359C116.507 27.4822 116.983 27.9932 117.285 28.6061C117.596 29.2279 117.752 29.9187 117.752 30.6775C117.752 30.9194 117.736 31.151 117.704 31.3724H111.65C111.755 32.0158 112.011 32.5033 112.417 32.8353C112.822 33.1668 113.309 33.3331 113.879 33.3331C114.353 33.3331 114.761 33.2301 115.104 33.0248C115.442 32.8233 115.723 32.5374 115.918 32.195L117.594 33.017C116.772 34.4501 115.523 35.1667 113.847 35.1667ZM115.76 29.9028C115.739 29.6495 115.647 29.3993 115.483 29.1517C115.32 28.9041 115.093 28.6987 114.804 28.5351C114.514 28.3719 114.174 28.29 113.784 28.29C113.289 28.29 112.864 28.4352 112.511 28.725C112.158 29.0148 111.902 29.4071 111.744 29.9028H115.759H115.76Z" fill="white"/>
<rect x="49.0293" y="10.1538" width="72.1031" height="7.91877" fill="#0A0A0A"/>
<path d="M53.7 16.5537C52.972 16.5537 52.3093 16.4044 51.712 16.1057C51.124 15.7977 50.6573 15.345 50.312 14.7477C49.976 14.141 49.808 13.3897 49.808 12.4937C49.8173 11.607 49.99 10.8604 50.326 10.2537C50.662 9.6377 51.124 9.1757 51.712 8.8677C52.3093 8.55036 52.9907 8.3917 53.756 8.3917C54.7733 8.3917 55.5947 8.66236 56.22 9.2037C56.8453 9.74503 57.2327 10.4544 57.382 11.3317H56.178C56.1033 10.8837 55.94 10.5244 55.688 10.2537C55.4453 9.98303 55.1513 9.78703 54.806 9.6657C54.47 9.54436 54.12 9.4837 53.756 9.4837C52.8693 9.4837 52.1833 9.74036 51.698 10.2537C51.2127 10.7577 50.97 11.481 50.97 12.4237C50.97 13.413 51.208 14.169 51.684 14.6917C52.16 15.205 52.8367 15.4617 53.714 15.4617C54.3207 15.4617 54.862 15.317 55.338 15.0277C55.814 14.729 56.108 14.2484 56.22 13.5857H57.438C57.2793 14.463 56.8873 15.177 56.262 15.7277C55.6367 16.2784 54.7827 16.5537 53.7 16.5537ZM61.0589 16.5537C60.1069 16.5537 59.3975 16.2784 58.9309 15.7277C58.4642 15.177 58.2309 14.477 58.2309 13.6277C58.2215 12.769 58.4549 12.0644 58.9309 11.5137C59.4069 10.963 60.1162 10.683 61.0589 10.6737C61.9735 10.6737 62.6689 10.9444 63.1449 11.4857C63.6209 12.027 63.8589 12.741 63.8589 13.6277C63.8589 14.1784 63.7562 14.6777 63.5509 15.1257C63.3549 15.5644 63.0469 15.9144 62.6269 16.1757C62.2162 16.4277 61.6935 16.5537 61.0589 16.5537ZM61.0589 15.5597C61.5069 15.5597 61.8475 15.4617 62.0809 15.2657C62.3235 15.0697 62.4915 14.8224 62.5849 14.5237C62.6782 14.2157 62.7249 13.903 62.7249 13.5857C62.7249 13.2684 62.6782 12.9604 62.5849 12.6617C62.4915 12.3537 62.3235 12.1017 62.0809 11.9057C61.8475 11.7004 61.5069 11.5977 61.0589 11.5977C60.6015 11.5977 60.2515 11.7004 60.0089 11.9057C59.7662 12.1017 59.5982 12.3537 59.5049 12.6617C59.4115 12.9604 59.3649 13.2684 59.3649 13.5857C59.3649 13.903 59.4115 14.2157 59.5049 14.5237C59.5982 14.8224 59.7662 15.0697 60.0089 15.2657C60.2515 15.4617 60.6015 15.5597 61.0589 15.5597ZM64.9207 16.4137V10.6877H65.9287L65.9567 12.0177H65.9847C66.0033 11.971 66.0407 11.8777 66.0967 11.7377C66.162 11.5977 66.26 11.4484 66.3907 11.2897C66.5307 11.1217 66.7127 10.9817 66.9367 10.8697C67.1607 10.7484 67.436 10.6877 67.7627 10.6877C68.2573 10.6877 68.6213 10.823 68.8547 11.0937C69.0973 11.355 69.27 11.663 69.3727 12.0177H69.4007C69.41 11.971 69.452 11.8777 69.5267 11.7377C69.6013 11.5977 69.7087 11.4484 69.8487 11.2897C69.998 11.1217 70.1893 10.9817 70.4227 10.8697C70.656 10.7484 70.9407 10.6877 71.2767 10.6877C71.6407 10.6877 71.9347 10.7624 72.1587 10.9117C72.392 11.061 72.5693 11.257 72.6907 11.4997C72.8213 11.733 72.91 11.985 72.9567 12.2557C73.0127 12.517 73.0453 12.769 73.0547 13.0117C73.064 13.2544 73.0687 13.455 73.0687 13.6137V16.4137H72.0747V13.5997C72.0747 13.4597 72.0653 13.287 72.0467 13.0817C72.0373 12.867 71.9953 12.657 71.9207 12.4517C71.8553 12.237 71.7387 12.0644 71.5707 11.9337C71.412 11.7937 71.1833 11.7237 70.8847 11.7237C70.53 11.7237 70.2547 11.817 70.0587 12.0037C69.8627 12.1904 69.7227 12.4377 69.6387 12.7457C69.5547 13.0444 69.5127 13.357 69.5127 13.6837V16.4137H68.5187V13.5997C68.5187 13.4597 68.5093 13.287 68.4907 13.0817C68.4813 12.867 68.4393 12.657 68.3647 12.4517C68.2993 12.237 68.1827 12.0644 68.0147 11.9337C67.856 11.7937 67.6273 11.7237 67.3287 11.7237C66.974 11.7237 66.6987 11.817 66.5027 12.0037C66.3067 12.1904 66.1667 12.4377 66.0827 12.7457C65.9987 13.0444 65.9567 13.357 65.9567 13.6837V16.4137H64.9207ZM74.9889 10.0577C74.7369 10.067 74.5689 10.0064 74.4849 9.8757C74.4009 9.74503 74.3589 9.5817 74.3589 9.3857C74.3589 9.2177 74.4009 9.06836 74.4849 8.9377C74.5689 8.80703 74.7369 8.7417 74.9889 8.7417C75.2315 8.7417 75.3949 8.80703 75.4789 8.9377C75.5722 9.06836 75.6189 9.2177 75.6189 9.3857C75.6189 9.5817 75.5722 9.74503 75.4789 9.8757C75.3949 9.99703 75.2315 10.0577 74.9889 10.0577ZM74.4009 16.4137V10.6877H75.5629V16.4137H74.4009ZM76.8562 16.4137V10.7017H77.8502L78.0462 12.0177H78.0742C78.0836 11.9804 78.1209 11.8917 78.1862 11.7517C78.2516 11.6117 78.3589 11.4624 78.5082 11.3037C78.6576 11.1357 78.8582 10.991 79.1102 10.8697C79.3622 10.7484 79.6796 10.6877 80.0622 10.6877C80.5662 10.6877 80.9582 10.7857 81.2382 10.9817C81.5182 11.1684 81.7236 11.4157 81.8542 11.7237C81.9849 12.0224 82.0642 12.3397 82.0922 12.6757C82.1296 13.0117 82.1482 13.3244 82.1482 13.6137V16.4137H81.0142V13.5997C81.0142 13.245 80.9769 12.9277 80.9022 12.6477C80.8276 12.3584 80.6876 12.1344 80.4822 11.9757C80.2862 11.8077 79.9969 11.7237 79.6142 11.7237C79.2222 11.7237 78.9096 11.817 78.6762 12.0037C78.4429 12.1904 78.2796 12.433 78.1862 12.7317C78.0929 13.0304 78.0462 13.3477 78.0462 13.6837V16.4137H76.8562ZM84.739 18.8637V17.7717H87.427V15.2657H87.399C87.3803 15.303 87.3337 15.3917 87.259 15.5317C87.1843 15.6624 87.0677 15.807 86.909 15.9657C86.7597 16.1244 86.559 16.2644 86.307 16.3857C86.055 16.4977 85.7517 16.5537 85.397 16.5537C84.557 16.5537 83.941 16.283 83.549 15.7417C83.157 15.191 82.961 14.4864 82.961 13.6277C82.961 12.7504 83.1617 12.041 83.563 11.4997C83.9643 10.9584 84.5803 10.6877 85.411 10.6877C85.7843 10.6877 86.0923 10.7484 86.335 10.8697C86.587 10.991 86.7877 11.1357 86.937 11.3037C87.0863 11.4717 87.1937 11.6257 87.259 11.7657C87.3337 11.9057 87.3757 11.9944 87.385 12.0317H87.413L87.427 10.6877H88.617V17.1417C88.617 17.7577 88.5003 18.1964 88.267 18.4577C88.0337 18.7284 87.6463 18.8637 87.105 18.8637H84.739ZM85.719 15.5457C86.2603 15.5457 86.6757 15.373 86.965 15.0277C87.2543 14.673 87.399 14.2064 87.399 13.6277C87.399 13.0677 87.259 12.615 86.979 12.2697C86.7083 11.915 86.307 11.7377 85.775 11.7377C85.3643 11.7377 85.033 11.831 84.781 12.0177C84.5383 12.195 84.361 12.4284 84.249 12.7177C84.1463 13.007 84.095 13.3104 84.095 13.6277C84.095 13.9544 84.1417 14.267 84.235 14.5657C84.3377 14.855 84.5057 15.093 84.739 15.2797C84.9817 15.457 85.3083 15.5457 85.719 15.5457ZM95.2723 16.5537C94.843 16.5537 94.437 16.4604 94.0543 16.2737C93.681 16.087 93.3777 15.8397 93.1443 15.5317C92.9203 15.2144 92.8083 14.8737 92.8083 14.5097H93.9003C93.9003 14.5284 93.905 14.5984 93.9143 14.7197C93.9237 14.841 93.9657 14.9764 94.0403 15.1257C94.115 15.275 94.2457 15.4057 94.4323 15.5177C94.6283 15.6297 94.9037 15.6857 95.2583 15.6857C95.6503 15.6857 95.9677 15.6157 96.2103 15.4757C96.453 15.3357 96.5743 15.1397 96.5743 14.8877C96.5743 14.6544 96.4857 14.4724 96.3083 14.3417C96.131 14.211 95.9023 14.1084 95.6223 14.0337C95.3423 13.9497 95.0437 13.8704 94.7263 13.7957C94.4183 13.721 94.1243 13.623 93.8443 13.5017C93.5737 13.371 93.3497 13.1984 93.1723 12.9837C93.0043 12.7597 92.925 12.461 92.9343 12.0877C92.9343 11.5837 93.1443 11.1964 93.5643 10.9257C93.9937 10.6457 94.535 10.5057 95.1883 10.5057C95.6083 10.5057 96.0097 10.5757 96.3923 10.7157C96.775 10.8464 97.0877 11.061 97.3303 11.3597C97.5823 11.6584 97.7037 12.0597 97.6943 12.5637H96.6163C96.6257 12.2464 96.551 12.0084 96.3923 11.8497C96.243 11.6817 96.0563 11.5697 95.8323 11.5137C95.6083 11.4484 95.3983 11.4157 95.2023 11.4157C94.829 11.4157 94.535 11.4857 94.3203 11.6257C94.1057 11.7564 93.9983 11.9337 93.9983 12.1577C93.9983 12.4004 94.087 12.587 94.2643 12.7177C94.4417 12.839 94.6703 12.9417 94.9503 13.0257C95.2303 13.1004 95.5243 13.175 95.8323 13.2497C96.1497 13.3244 96.4483 13.4224 96.7283 13.5437C97.0083 13.665 97.237 13.8377 97.4143 14.0617C97.601 14.2857 97.6943 14.5844 97.6943 14.9577C97.6943 15.5084 97.4657 15.9144 97.0083 16.1757C96.551 16.4277 95.9723 16.5537 95.2723 16.5537ZM101.309 16.5537C100.357 16.5537 99.6475 16.2784 99.1809 15.7277C98.7142 15.177 98.4809 14.477 98.4809 13.6277C98.4715 12.769 98.7049 12.0644 99.1809 11.5137C99.6569 10.963 100.366 10.683 101.309 10.6737C102.224 10.6737 102.919 10.9444 103.395 11.4857C103.871 12.027 104.109 12.741 104.109 13.6277C104.109 14.1784 104.006 14.6777 103.801 15.1257C103.605 15.5644 103.297 15.9144 102.877 16.1757C102.466 16.4277 101.944 16.5537 101.309 16.5537ZM101.309 15.5597C101.757 15.5597 102.098 15.4617 102.331 15.2657C102.574 15.0697 102.742 14.8224 102.835 14.5237C102.928 14.2157 102.975 13.903 102.975 13.5857C102.975 13.2684 102.928 12.9604 102.835 12.6617C102.742 12.3537 102.574 12.1017 102.331 11.9057C102.098 11.7004 101.757 11.5977 101.309 11.5977C100.852 11.5977 100.502 11.7004 100.259 11.9057C100.016 12.1017 99.8482 12.3537 99.7549 12.6617C99.6615 12.9604 99.6149 13.2684 99.6149 13.5857C99.6149 13.903 99.6615 14.2157 99.7549 14.5237C99.8482 14.8224 100.016 15.0697 100.259 15.2657C100.502 15.4617 100.852 15.5597 101.309 15.5597ZM107.817 16.5537C106.865 16.5537 106.155 16.2784 105.689 15.7277C105.222 15.177 104.989 14.477 104.989 13.6277C104.979 12.769 105.213 12.0644 105.689 11.5137C106.165 10.963 106.874 10.683 107.817 10.6737C108.731 10.6737 109.427 10.9444 109.903 11.4857C110.379 12.027 110.617 12.741 110.617 13.6277C110.617 14.1784 110.514 14.6777 110.309 15.1257C110.113 15.5644 109.805 15.9144 109.385 16.1757C108.974 16.4277 108.451 16.5537 107.817 16.5537ZM107.817 15.5597C108.265 15.5597 108.605 15.4617 108.839 15.2657C109.081 15.0697 109.249 14.8224 109.343 14.5237C109.436 14.2157 109.483 13.903 109.483 13.5857C109.483 13.2684 109.436 12.9604 109.343 12.6617C109.249 12.3537 109.081 12.1017 108.839 11.9057C108.605 11.7004 108.265 11.5977 107.817 11.5977C107.359 11.5977 107.009 11.7004 106.767 11.9057C106.524 12.1017 106.356 12.3537 106.263 12.6617C106.169 12.9604 106.123 13.2684 106.123 13.5857C106.123 13.903 106.169 14.2157 106.263 14.5237C106.356 14.8224 106.524 15.0697 106.767 15.2657C107.009 15.4617 107.359 15.5597 107.817 15.5597ZM111.678 16.4137V10.7017H112.672L112.868 12.0177H112.896C112.906 11.9804 112.943 11.8917 113.008 11.7517C113.074 11.6117 113.181 11.4624 113.33 11.3037C113.48 11.1357 113.68 10.991 113.932 10.8697C114.184 10.7484 114.502 10.6877 114.884 10.6877C115.388 10.6877 115.78 10.7857 116.06 10.9817C116.34 11.1684 116.546 11.4157 116.676 11.7237C116.807 12.0224 116.886 12.3397 116.914 12.6757C116.952 13.0117 116.97 13.3244 116.97 13.6137V16.4137H115.836V13.5997C115.836 13.245 115.799 12.9277 115.724 12.6477C115.65 12.3584 115.51 12.1344 115.304 11.9757C115.108 11.8077 114.819 11.7237 114.436 11.7237C114.044 11.7237 113.732 11.817 113.498 12.0037C113.265 12.1904 113.102 12.433 113.008 12.7317C112.915 13.0304 112.868 13.3477 112.868 13.6837V16.4137H111.678Z" fill="white"/>
</g>
<defs>
<clipPath id="clip0_1276_4816">
<rect width="146.206" height="46.1702" fill="white" transform="translate(0 0.5)"/>
</clipPath>
</defs>
</svg>
